<?xml version="1.0" encoding="UTF-8" standalone="no"?>
<!-- Created with Inkscape (http://www.inkscape.org/) -->

<svg
   version="1.1"
   id="svg2"
   xml:space="preserve"
   width="1821.3333"
   height="1024"
   viewBox="0 0 1821.3333 1024"
   xmlns="http://www.w3.org/2000/svg"
   xmlns:svg="http://www.w3.org/2000/svg"><defs
     id="defs6"><clipPath
       clipPathUnits="userSpaceOnUse"
       id="clipPath16"><path
         d="M 0,768 H 1366 V 0 H 0 Z"
         id="path14" /></clipPath></defs><g
     id="g8"
     transform="matrix(1.3333333,0,0,-1.3333333,0,1024)"><g
       id="g10"><g
         id="g12"
         clip-path="url(#clipPath16)"><g
           id="g18"
           transform="translate(858.8477,265.8057)"><path
             d="M 0,0 -140.865,118.2 0,236.4 C 25.871,203.934 41.356,162.844 41.356,118.2 41.356,73.556 25.871,32.466 0,0 m -148.644,-71.8 c -56.536,0 -107.374,24.829 -142.209,64.147 L -148.644,111.673 -6.436,-7.653 C -41.271,-46.971 -92.108,-71.8 -148.644,-71.8 m -190,190 c 0,44.644 15.486,85.734 41.356,118.2 L -156.422,118.2 -297.288,0 c -25.87,32.466 -41.356,73.556 -41.356,118.2 m 190,190 c 56.536,0 107.373,-24.829 142.208,-64.146 L -148.644,124.727 -290.853,244.054 c 34.835,39.317 85.673,64.146 142.209,64.146 M 64.494,34.652 c 24.224,12.394 43.39,31.846 55.491,56.273 0.905,8.971 1.371,18.069 1.371,27.275 0,20.52 -2.312,40.507 -6.669,59.728 -4.505,-20.271 -13.576,-39.187 -26.856,-55.642 -0.987,-1.223 -2.435,-1.859 -3.893,-1.859 -1.103,0 -2.213,0.362 -3.138,1.109 -2.149,1.735 -2.485,4.882 -0.75,7.031 17.085,21.169 26.68,46.728 27.804,73.962 -9.22,27.973 -22.88,53.947 -40.169,77.062 4.067,-20.262 3.455,-41.134 -1.959,-61.475 -0.596,-2.237 -2.619,-3.715 -4.83,-3.715 -0.425,0 -0.858,0.055 -1.289,0.169 -2.669,0.711 -4.255,3.45 -3.545,6.118 6.965,26.17 5.377,53.294 -4.551,78.532 -19.582,21.631 -42.618,40.073 -68.221,54.474 11.984,-16.873 19.931,-36.214 23.263,-57.025 0.436,-2.727 -1.421,-5.291 -4.148,-5.728 -0.267,-0.043 -0.533,-0.063 -0.796,-0.063 -2.413,0 -4.538,1.752 -4.931,4.211 -4.295,26.834 -16.849,51.046 -36.302,70.096 -26.218,11.618 -54.614,19.175 -84.395,21.88 17.863,-10.544 33.031,-25.005 44.564,-42.701 1.508,-2.313 0.855,-5.411 -1.458,-6.919 -0.843,-0.549 -1.79,-0.812 -2.726,-0.812 -1.633,0 -3.235,0.8 -4.193,2.27 -14.846,22.779 -36.177,39.797 -61.712,49.285 -30.072,-0.098 -59.003,-5.134 -86.02,-14.345 20.627,-2.362 40.386,-9.404 58.139,-20.89 2.319,-1.5 2.982,-4.596 1.482,-6.915 -0.957,-1.478 -2.564,-2.284 -4.203,-2.284 -0.931,0 -1.873,0.26 -2.711,0.803 -22.826,14.768 -49.226,21.643 -76.413,19.924 -26.721,-12.05 -51.135,-28.334 -72.402,-47.978 19.7,6.141 40.491,7.703 61.253,4.447 2.728,-0.427 4.593,-2.985 4.165,-5.714 -0.427,-2.728 -2.97,-4.595 -5.714,-4.165 -26.743,4.194 -53.548,-0.218 -77.604,-12.724 -19.458,-21.679 -35.464,-46.511 -47.153,-73.628 15.546,13.722 33.98,23.674 54.368,29.172 2.666,0.723 5.411,-0.86 6.128,-3.526 0.72,-2.666 -0.859,-5.41 -3.525,-6.129 -26.265,-7.083 -49.052,-22.122 -65.969,-43.494 -8.378,-26.03 -12.921,-53.763 -12.921,-82.542 0,-1.199 0.03,-2.39 0.045,-3.586 8.621,18.856 21.412,35.442 37.798,48.756 2.142,1.74 5.292,1.415 7.034,-0.727 1.742,-2.144 1.415,-5.293 -0.727,-7.035 -21.11,-17.151 -35.809,-40.152 -42.572,-66.55 3.198,-29.663 11.221,-57.899 23.265,-83.912 0.209,20.723 5.148,41.072 14.699,59.892 1.25,2.463 4.259,3.446 6.722,2.196 2.463,-1.25 3.445,-4.258 2.196,-6.721 -12.28,-24.198 -16.36,-51.12 -11.852,-77.926 14.741,-25.272 33.467,-47.941 55.311,-67.15 -8.168,18.953 -11.896,39.468 -10.83,60.461 0.14,2.757 2.463,4.87 5.248,4.741 2.758,-0.141 4.88,-2.491 4.741,-5.248 -1.374,-27.06 5.826,-53.275 20.8,-75.906 23.51,-17.044 49.854,-30.406 78.191,-39.207 -15.307,14.038 -27.156,31.355 -34.768,51.086 -0.994,2.577 0.289,5.471 2.865,6.465 2.575,0.996 5.471,-0.288 6.465,-2.865 9.795,-25.395 27.147,-46.494 50.188,-61.086 17.819,-3.716 36.275,-5.678 55.181,-5.678 10.769,0 21.386,0.654 31.829,1.885 -19.671,6.601 -37.52,17.594 -52.484,32.51 -1.955,1.949 -1.961,5.115 -0.011,7.071 1.949,1.956 5.114,1.961 7.072,0.011 19.268,-19.208 43.691,-31.424 70.665,-35.387 28.944,6.253 56.174,17.157 80.868,31.895 -4.199,-0.395 -8.403,-0.611 -12.602,-0.611 -16.394,0 -32.711,3.004 -48.377,8.988 -2.58,0.986 -3.872,3.876 -2.886,6.456 0.984,2.579 3.875,3.875 6.455,2.886 25.307,-9.669 52.463,-10.921 78.611,-3.675 23.588,17.268 44.289,38.255 61.211,62.109 -18.017,-10.134 -38.061,-16.003 -59.082,-17.139 -0.092,-0.005 -0.184,-0.007 -0.273,-0.007 -2.639,0 -4.845,2.065 -4.99,4.731 -0.148,2.757 1.966,5.113 4.724,5.263 27.11,1.464 52.479,11.402 73.446,28.726 14.399,25.01 24.89,52.536 30.673,81.734 C 103.847,48.967 87.87,35.379 69.049,25.75 68.319,25.377 67.542,25.2 66.775,25.2 c -1.817,0 -3.57,0.994 -4.455,2.724 -1.257,2.458 -0.284,5.471 2.174,6.728"
             style="fill:#71706f;fill-opacity:1;fill-rule:nonzero;stroke:none"
             id="path20" /></g><g
           id="g22"
           transform="translate(781.7568,524.9912)"><path
             d="m 0,0 -15.012,-26.406 3.939,-2.24 c 3.187,-1.812 6.216,-2.156 9.084,-1.03 2.868,1.125 5.422,3.615 7.662,7.471 l 1.189,2.092 c 2.285,4.02 3.185,7.541 2.698,10.562 -0.488,3.021 -2.334,5.443 -5.539,7.265 z M -26.885,-28.32 -4.397,11.234 7.773,4.315 c 3.478,-1.976 6.143,-4.528 7.997,-7.655 1.852,-3.126 2.727,-6.571 2.625,-10.335 -0.103,-3.764 -1.2,-7.484 -3.29,-11.161 l -1.035,-1.82 c -2.09,-3.677 -4.705,-6.516 -7.843,-8.518 -3.139,-2.002 -6.534,-3.008 -10.182,-3.018 -3.649,-0.011 -7.208,0.958 -10.677,2.907 z m -27.533,23.361 11.219,-1.877 -2.83,17.741 z m 12.463,-9.785 -16.213,2.713 -4.629,-8.731 -9.832,1.645 24.213,42.081 8.569,-1.434 9.289,-47.686 -9.832,1.645 z M -86.839,2.331 c -0.824,4.699 -2.292,8.122 -4.403,10.27 -2.111,2.146 -4.726,2.946 -7.845,2.399 -3.099,-0.544 -5.278,-2.169 -6.537,-4.875 -1.26,-2.706 -1.492,-6.39 -0.695,-11.052 l 0.382,-2.184 c 0.803,-4.576 2.267,-7.979 4.393,-10.208 2.125,-2.229 4.768,-3.067 7.928,-2.512 3.098,0.543 5.265,2.177 6.501,4.9 1.236,2.723 1.456,6.415 0.659,11.077 z m 9.713,-0.39 c 0.774,-4.412 0.672,-8.417 -0.304,-12.014 -0.976,-3.598 -2.758,-6.555 -5.345,-8.869 -2.587,-2.316 -5.758,-3.802 -9.513,-4.461 -3.714,-0.652 -7.186,-0.34 -10.412,0.934 -3.227,1.275 -5.931,3.428 -8.113,6.461 -2.182,3.033 -3.661,6.703 -4.437,11.009 l -0.389,2.216 c -0.773,4.412 -0.66,8.434 0.342,12.069 1.002,3.634 2.797,6.603 5.386,8.907 2.589,2.305 5.751,3.786 9.485,4.441 3.735,0.654 7.211,0.339 10.43,-0.947 3.219,-1.287 5.917,-3.468 8.096,-6.544 2.178,-3.077 3.653,-6.81 4.423,-11.202 z m -71.889,-21.019 6.569,3.748 c 2.045,1.166 3.331,2.59 3.86,4.27 0.528,1.681 0.271,3.435 -0.771,5.263 -1.064,1.863 -2.429,3.027 -4.097,3.491 -1.668,0.463 -3.597,0.071 -5.786,-1.178 l -6.542,-3.732 z m 10.25,-2.895 -6.487,-3.701 8.254,-14.468 -8.144,-4.645 -22.545,39.521 14.684,8.377 c 4.668,2.664 8.863,3.678 12.584,3.042 3.72,-0.635 6.664,-2.853 8.832,-6.653 1.539,-2.697 2.238,-5.278 2.098,-7.744 -0.14,-2.467 -1.091,-4.91 -2.852,-7.33 l 17.764,-11.273 0.217,-0.38 -8.741,-4.986 z m 149.981,-246.895 -10.138,31.35 8.201,4.478 12.944,-44.772 -8.285,-4.523 -21.084,23.166 8.083,-30.265 -8.283,-4.521 -30.662,35.099 8.201,4.477 20.887,-25.411 -8.9,31.955 6.966,3.804 z m -56.194,-11.194 c -0.56,4.738 -1.835,8.238 -3.822,10.5 -1.988,2.26 -4.554,3.205 -7.699,2.833 -3.124,-0.37 -5.391,-1.871 -6.8,-4.502 -1.408,-2.632 -1.846,-6.297 -1.31,-10.996 l 0.26,-2.204 c 0.546,-4.613 1.818,-8.091 3.816,-10.436 1.997,-2.344 4.59,-3.327 7.775,-2.95 3.124,0.37 5.379,1.88 6.765,4.529 1.386,2.65 1.811,6.324 1.276,11.023 z m 9.677,-0.931 c 0.527,-4.448 0.201,-8.442 -0.974,-11.979 -1.176,-3.538 -3.121,-6.39 -5.832,-8.557 -2.712,-2.167 -5.961,-3.475 -9.747,-3.922 -3.746,-0.444 -7.193,0.061 -10.343,1.514 -3.152,1.452 -5.732,3.752 -7.741,6.903 -2.008,3.15 -3.281,6.897 -3.815,11.239 l -0.265,2.234 c -0.526,4.449 -0.188,8.458 1.016,12.032 1.202,3.572 3.16,6.436 5.874,8.592 2.713,2.158 5.952,3.458 9.718,3.904 3.765,0.446 7.219,-0.064 10.361,-1.528 3.142,-1.463 5.714,-3.792 7.718,-6.985 2.003,-3.192 3.268,-7.003 3.791,-11.43 z m -56.048,-24.861 -9.128,2.138 4.45,18.986 -17.799,4.171 -4.449,-18.986 -9.128,2.14 10.382,44.3 9.127,-2.14 -4.207,-17.951 17.799,-4.171 4.207,17.951 9.128,-2.139 z m -55.571,31.375 c 0.951,1.494 1.154,2.976 0.609,4.447 -0.544,1.47 -1.905,3.523 -4.082,6.156 -2.175,2.634 -3.789,4.89 -4.839,6.77 -2.859,5.129 -3.018,9.689 -0.477,13.678 1.32,2.074 3.082,3.551 5.286,4.432 2.204,0.881 4.691,1.082 7.46,0.602 2.77,-0.479 5.517,-1.586 8.24,-3.321 2.742,-1.746 4.868,-3.798 6.38,-6.156 1.511,-2.358 2.283,-4.82 2.318,-7.385 0.033,-2.565 -0.684,-4.999 -2.15,-7.301 l -7.907,5.036 c 1.119,1.757 1.436,3.476 0.949,5.157 -0.485,1.679 -1.73,3.158 -3.733,4.433 -1.934,1.232 -3.696,1.78 -5.288,1.645 -1.592,-0.134 -2.814,-0.869 -3.664,-2.204 -0.795,-1.248 -0.832,-2.694 -0.114,-4.337 0.719,-1.644 2.066,-3.612 4.038,-5.906 3.636,-4.218 5.845,-7.984 6.625,-11.296 0.781,-3.313 0.219,-6.463 -1.683,-9.45 -2.115,-3.322 -5.031,-5.126 -8.746,-5.415 -3.717,-0.289 -7.7,0.921 -11.953,3.629 -2.953,1.881 -5.296,4.133 -7.034,6.758 -1.736,2.625 -2.643,5.283 -2.719,7.976 -0.077,2.691 0.674,5.276 2.252,7.754 l 7.934,-5.053 c -2.697,-4.235 -1.515,-7.964 3.545,-11.188 1.88,-1.197 3.591,-1.75 5.132,-1.656 1.542,0.093 2.749,0.824 3.621,2.195"
             style="fill:#1d1d1b;fill-opacity:1;fill-rule:nonzero;stroke:none"
             id="path24" /></g><g
           id="g26"
           transform="translate(1056.8125,313.9951)"><path
             d="M 0,0 H -19.466 L 3.341,68.425 c 0.343,1.026 0.343,2.136 0,3.162 L -19.466,140.01 H 0 l 23.33,-70 z M -686.42,18.782 -667.695,0 h -18.725 z m -15.39,41.327 C -704.72,62.71 -712.52,66 -719.72,66 h -0.2 c -12.1,-0.091 -6,-3.79 -29.1,-3.79 -13.8,0 -18.6,2.8 -21.2,5.09 -0.9,0.8 -1.3,1.91 -1.3,2.91 0,1.1 0.4,2.1 1.3,2.9 2.6,2.3 7.4,5.1 21.2,5.1 h 0.1 c 23.1,0 17,-3.7 29.1,-3.8 h 0.3 c 8.2,0 14.8,3.3 17.71,5.9 1.76,1.44 3.71,2.05 5.39,2.22 V 57.68 c -1.72,0.179 -3.62,0.82 -5.39,2.429 m 15.39,79.901 h 20.006 V 54.057 L -686.42,74.096 V 90.12 Z m 0,-90.08 v 5.681 l 20.006,-20.006 V 17.204 l -20.006,20.005 z m 719.76,21.66 -25,75 c -0.68,2.04 -2.59,3.42 -4.74,3.42 h -695.02 c -2.76,0 -5,-2.24 -5,-5 V 92.17 c -4.43,-0.25 -8.5,-1.93 -11.8,-4.86 -1.2,-1.11 -5.6,-3.4 -11.3,-3.4 h -0.2 c -3.4,0 -4.3,0.3 -6,0.9 -4.4,1.6 -9.3,2.9 -23.3,2.9 h -0.1 c -13.2,0 -21.8,-2.3 -27.6,-7.6 -2.9,-2.6 -4.5,-6.3 -4.5,-10.1 0,-3.901 1.6,-7.5 4.5,-10.101 5.9,-5.199 14.4,-7.609 27.6,-7.609 h 0.1 c 14,0 18.8,1.3 23.3,2.91 1.7,0.6 2.5,0.899 5.9,0.899 h 0.1 c 4.8,0 10.2,-2.399 11.4,-3.399 3.33,-2.96 7.43,-4.631 11.9,-4.87 V -5 c 0,-2.761 2.24,-5 5,-5 L 3.6,-10 c 2.15,0 4.06,1.38 4.74,3.42 l 25,75.01 c 0.34,1.02 0.34,2.13 0,3.16"
             style="fill:#e52f23;fill-opacity:1;fill-rule:nonzero;stroke:none"
             id="path28" /></g><g
           id="g30"
           transform="translate(831.5312,410.9805)"><path
             d="m 0,0 c 6.641,0 12.049,5.4 12.049,12.134 0,6.709 -5.408,12.131 -12.049,12.131 -6.713,0 -12.225,-5.422 -12.225,-12.131 C -12.225,5.4 -6.713,0 0,0"
             style="fill:#ffffff;fill-opacity:1;fill-rule:evenodd;stroke:none"
             id="path32" /></g><g
           id="g34"
           transform="translate(704.8623,371.2012)"><path
             d="m 0,0 c -9.817,0 -17.817,6.2 -17.817,13.443 0,7.205 8,12.905 17.817,12.905 9.535,0 18.062,-5.948 18.062,-13.2 C 18.062,5.948 9.535,0 0,0 m 0.257,33.552 c -20.126,0 -35.609,-9.527 -35.609,-20.404 0,-10.822 14.948,-21.392 35.352,-21.392 20.147,0 36.383,10.57 36.383,21.392 0,10.877 -15.983,20.404 -36.126,20.404"
             style="fill:#ffffff;fill-opacity:1;fill-rule:evenodd;stroke:none"
             id="path36" /></g><path
           d="m 823.062,364.001 h 16.774 v 40 h -16.774 z"
           style="fill:#ffffff;fill-opacity:1;fill-rule:evenodd;stroke:none"
           id="path38" /><g
           id="g40"
           transform="translate(762.4385,383.8613)"><path
             d="M 0,0 C 0,7.829 11.873,16.41 32.77,8.987 V -7.897 C 11.493,-16.03 0,-8.65 0,0 M 32.77,15.978 V 15.717 C 6.85,28.93 -17.797,14.648 -17.565,-1.048 c 0,-16.445 30.328,-26.873 50.335,-13.837 v -1.111 C 30.443,-34.065 2.039,-31.773 -1.844,-19.866 h -16.76 c 5.695,-22.238 69.191,-25.813 69.191,10.326 V 19.852 H 32.77 Z"
             style="fill:#ffffff;fill-opacity:1;fill-rule:evenodd;stroke:none"
             id="path42" /></g><g
           id="g44"
           transform="translate(538.124,383.3569)"><path
             d="M 0,0 C 0,8.077 12.626,16.65 33.5,9.492 L 33.376,-7.705 C 12.19,-15.744 0,-8.625 0,0 M 33.552,16.474 V 15.47 c -26.373,14.867 -53.17,-0.556 -53.17,-16.265 0,-15.209 31.038,-27.374 52.948,-13.444 L 33.3,-19.361 H 50.33 V 20.357 H 33.552 Z"
             style="fill:#ffffff;fill-opacity:1;fill-rule:evenodd;stroke:none"
             id="path46" /></g><g
           id="g48"
           transform="translate(868,374.8574)"><path
             d="M 0,0 V 16.876 C 21.302,25.03 33.539,17.902 33.539,9.787 33.539,1.428 20.904,-7.401 0,0 M 0,23.521 V 29.14 H -17.296 V -26.348 H 0 V -7 -5.978 C 26.168,-20.828 53.447,-5.413 53.447,10.287 53.204,26.228 21.931,37.729 0,23.521"
             style="fill:#ffffff;fill-opacity:1;fill-rule:evenodd;stroke:none"
             id="path50" /></g><g
           id="g52"
           transform="translate(635.9546,404.7549)"><path
             d="m 0,0 c -6.94,0 -14.632,-1.741 -22.222,-6.187 v 1.551 3.596 h -16.504 v -40.008 h 16.504 v 28.861 c 5.995,2.207 11.498,3.943 16.518,3.943 13.956,0 18.322,-6.2 18.322,-12.413 v -20.101 h 16.278 v 21.654 C 28.896,-10.331 23.239,0 0,0"
             style="fill:#ffffff;fill-opacity:1;fill-rule:evenodd;stroke:none"
             id="path54" /></g><g
           id="g56"
           transform="translate(461.9741,383.3569)"><path
             d="M 0,0 C 0,8.077 12.635,16.659 33.552,9.479 V -7.641 C 12.263,-15.791 0,-8.646 0,0 M 33.552,16.474 V 15.479 C 7.367,30.337 -19.896,14.922 -19.896,-0.54 c 0.27,-15.204 31.329,-27.603 53.448,-13.699 v -5.122 H 51.874 V 34.552 H 33.552 Z"
             style="fill:#ffffff;fill-opacity:1;fill-rule:evenodd;stroke:none"
             id="path58" /></g><g
           id="g60"
           transform="translate(972.8076,387.2163)"><path
             d="m 0,0 c -4.392,1.017 -10.07,2.043 -15.483,2.839 -6.982,1.283 -14.486,2.33 -14.486,5.421 0,3.614 5.699,4.644 11.373,4.644 6.705,0 14.204,-2.852 14.731,-7.735 H 16.5 c -2.296,10.322 -20.126,13.405 -37.435,13.405 -22.439,-0.257 -28.643,-7.24 -28.643,-11.609 0,-7.239 17.817,-10.321 24.282,-11.87 0,0 5.4,-0.782 10.817,-2.078 5.453,-1.039 11.123,-1.543 11.123,-5.417 0,-6.704 -23.744,-6.704 -27.362,5.169 h -19.899 c 0,0 -0.744,-17.03 39.016,-17.03 23.475,1.535 29.931,6.944 29.931,12.361 C 18.582,-7.74 14.204,-1.822 0,0"
             style="fill:#ffffff;fill-opacity:1;fill-rule:evenodd;stroke:none"
             id="path62" /></g></g></g></g></svg>
